<svg xmlns="http://www.w3.org/2000/svg" version="1.1" xmlns:xlink="http://www.w3.org/1999/xlink" xmlns:svgjs="http://svgjs.dev/svgjs" width="1500" height="939" viewBox="0 0 1500 939"><g transform="matrix(1,0,0,1,-0.9090909090909918,-1.5145161290323017)"><svg viewBox="0 0 396 248" data-background-color="#ffffff" preserveAspectRatio="xMidYMid meet" height="939" width="1500" xmlns="http://www.w3.org/2000/svg" xmlns:xlink="http://www.w3.org/1999/xlink"><g id="tight-bounds" transform="matrix(1,0,0,1,0.2400000000000091,0.4000000000000057)"><svg viewBox="0 0 395.52 247.2" height="247.2" width="395.52"><g><svg></svg></g><g><svg viewBox="0 0 395.52 247.2" height="247.2" width="395.52"><g transform="matrix(1,0,0,1,75.54432,71.49907123579985)"><svg viewBox="0 0 244.43135999999998 104.20185752840028" height="104.20185752840028" width="244.43135999999998"><g><svg viewBox="0 0 244.43135999999998 104.20185752840028" height="104.20185752840028" width="244.43135999999998"><g><svg viewBox="0 0 244.43135999999998 104.20185752840028" height="104.20185752840028" width="244.43135999999998"><g><svg viewBox="0 0 244.43135999999998 104.20185752840028" height="104.20185752840028" width="244.43135999999998"><g id="textblocktransform"><svg viewBox="0 0 244.43135999999998 104.20185752840028" height="104.20185752840028" width="244.43135999999998" id="textblock"><g><svg viewBox="0 0 244.43135999999998 66.11170779156326" height="66.11170779156326" width="244.43135999999998"><g transform="matrix(1,0,0,1,0,0)"><svg width="244.43135999999998" viewBox="2.1499999999999995 -34 161.18 43.6" height="66.11170779156326" data-palette-color="#6f605b"><path d="M5.6 0.5L5.6 0.5Q5 0.5 4.38 0.3 3.75 0.1 3.35-0.65 2.95-1.4 2.95-2.95L2.95-2.95Q2.95-4.2 3.18-6.13 3.4-8.05 3.75-10.25L3.75-10.25Q4.1-12.5 4.33-15 4.55-17.5 4.55-20.05L4.55-20.05Q4.55-21.05 4.5-22.2 4.45-23.35 4.3-24.45L4.3-24.45Q3.95-24.25 3.63-24.13 3.3-24 3-24L3-24Q2.15-24 2.15-25.65L2.15-25.65Q2.15-27.15 2.83-28.18 3.5-29.2 5.3-30.15L5.3-30.15Q7.05-31.1 9.43-31.73 11.8-32.35 14.25-32.35L14.25-32.35Q19.1-32.35 22.03-29.8 24.95-27.25 24.95-23L24.95-23Q24.95-20.4 23.9-18.2 22.85-16 21.13-14.38 19.4-12.75 17.38-11.88 15.35-11 13.4-11L13.4-11Q11.55-11 10.9-11.83 10.25-12.65 10.25-14.2L10.25-14.2Q10.25-14.95 10.43-15.58 10.6-16.2 11.2-16.2L11.2-16.2Q11.35-16.2 11.65-16.15 11.95-16.1 12.25-16L12.25-16Q12.55-15.95 13.1-15.85 13.65-15.75 14.35-15.75L14.35-15.75Q17.1-15.75 18.82-17.3 20.55-18.85 20.55-21.3L20.55-21.3Q20.55-23.85 18.65-25.3 16.75-26.75 13.75-26.75L13.75-26.75Q12.65-26.75 11.5-26.58 10.35-26.4 9.2-26.1L9.2-26.1Q9.05-22.8 8.5-18.6L8.5-18.6Q8.2-16.1 7.98-13.68 7.75-11.25 7.75-9.25L7.75-9.25Q7.75-7.5 8.08-6.18 8.4-4.85 9.4-3.9L9.4-3.9Q10.1-3.2 10.1-2.4L10.1-2.4Q10.1-1.3 8.85-0.4 7.6 0.5 5.6 0.5ZM34.2 0.65L34.2 0.65Q30.75 0.65 28.67-1.23 26.6-3.1 26.6-6.75L26.6-6.75Q26.6-8.45 27.07-10.05 27.55-11.65 28.35-13.05L28.35-13.05Q27.55-12.55 27.15-12.55L27.15-12.55Q26.55-12.55 26.32-13.23 26.1-13.9 26.1-14.55L26.1-14.55Q26.1-15.7 26.57-16.38 27.05-17.05 27.5-17.4L27.5-17.4Q28.55-18.3 30.8-19.38 33.05-20.45 36.2-20.45L36.2-20.45Q40.5-20.45 42.87-18.05 45.25-15.65 45.25-11.35L45.25-11.35Q45.25-8 43.85-5.28 42.45-2.55 39.97-0.95 37.5 0.65 34.2 0.65ZM35.75-4.45L35.75-4.45Q38.25-4.45 39.97-6.03 41.7-7.6 41.7-10.2L41.7-10.2Q41.7-12.9 39.95-14.05 38.2-15.2 35.9-15.2L35.9-15.2Q34.85-15.2 34-15 33.15-14.8 32.4-14.5L32.4-14.5Q31.7-13.5 31.15-12.25 30.6-11 30.6-9.5L30.6-9.5Q30.6-7 32.1-5.73 33.6-4.45 35.75-4.45ZM52.1 0.55L52.1 0.55Q51.3 0.55 50.82 0.28 50.35 0 50.5-0.65L50.5-0.65Q51.05-2.8 51.42-5.03 51.8-7.25 51.8-9.3L51.8-9.3Q51.8-11.95 51.47-13.18 51.15-14.4 50.6-14.88 50.05-15.35 49.25-15.6L49.25-15.6Q48.9-15.75 48.62-16 48.35-16.25 48.35-16.7L48.35-16.7Q48.35-17.4 48.9-18.25 49.45-19.1 50.45-19.73 51.45-20.35 52.75-20.35L52.75-20.35Q54.45-20.35 55.12-19.18 55.8-18 55.8-16.1L55.8-16.1Q56.7-18.1 58.02-19.28 59.35-20.45 61.35-20.45L61.35-20.45Q62.7-20.45 63.6-19.85 64.5-19.25 64.5-17.9L64.5-17.9Q64.5-16.55 63.62-15.38 62.75-14.2 61.85-14.2L61.85-14.2Q61.7-14.2 61.5-14.25 61.3-14.3 61.15-14.5L61.15-14.5Q60.5-15.3 59.55-15.3L59.55-15.3Q58.1-15.3 57-13.4 55.9-11.5 55.8-8.15L55.8-8.15Q55.85-6.9 55.87-5.6 55.9-4.3 55.9-3.7L55.9-3.7Q55.9-1.85 54.87-0.65 53.85 0.55 52.1 0.55ZM73.04 0.65L73.04 0.65Q69.99 0.65 68.67-1.38 67.34-3.4 67.34-6.6L67.34-6.6Q67.34-7.75 67.47-8.85 67.59-9.95 67.74-11.05L67.74-11.05Q67.89-12.15 68.04-13.2 68.19-14.25 68.29-15.2L68.29-15.2Q67.24-14.9 66.19-14.9L66.19-14.9Q65.09-14.9 65.09-15.8L65.09-15.8Q65.09-16.75 65.94-18.13 66.79-19.5 68.07-20.85 69.34-22.2 70.62-23.13 71.89-24.05 72.79-24.05L72.79-24.05Q73.89-24.05 73.89-22.15L73.89-22.15Q73.89-21.65 73.82-21.13 73.74-20.6 73.64-20.05L73.64-20.05Q74.59-20.25 75.57-20.4 76.54-20.55 77.44-20.55L77.44-20.55Q78.59-20.55 79.22-20.15 79.84-19.75 79.84-18.6L79.84-18.6Q79.84-17.4 79.27-16.2 78.69-15 77.99-15L77.99-15Q77.84-15 77.49-15.05 77.14-15.1 76.64-15.2L76.64-15.2Q75.99-15.35 74.99-15.5 73.99-15.65 72.59-15.65L72.59-15.65Q72.24-14.1 71.97-12.48 71.69-10.85 71.69-9.55L71.69-9.55Q71.69-6.65 73.14-5.6 74.59-4.55 77.34-4.55L77.34-4.55Q78.19-4.55 78.54-4.28 78.89-4 78.89-3.3L78.89-3.3Q78.89-1.65 77.19-0.5 75.49 0.65 73.04 0.65ZM85.44 9.6L85.44 9.6Q84.49 9.6 83.99 9.13 83.49 8.65 83.54 7.4L83.54 7.4Q83.54 6.65 83.67 4.73 83.79 2.8 84.02 0.18 84.24-2.45 84.52-5.3 84.79-8.15 85.04-10.8 85.29-13.45 85.49-15.35L85.49-15.35Q84.99-15.3 84.54-15.28 84.09-15.25 83.64-15.15L83.64-15.15Q83.14-15.05 82.89-15.05L82.89-15.05Q82.29-15.05 82.09-15.78 81.89-16.5 81.89-17.15L81.89-17.15Q81.89-17.9 82.12-18.4 82.34-18.9 83.09-19.2L83.09-19.2Q83.54-19.4 84.27-19.55 84.99-19.7 85.79-19.8L85.79-19.8Q86.04-22.75 86.57-25.4 87.09-28.05 88.19-29.9L88.19-29.9Q89.34-31.8 91.32-32.9 93.29-34 95.34-34L95.34-34Q96.84-34 98.17-33.43 99.49-32.85 100.32-31.83 101.14-30.8 101.14-29.5L101.14-29.5Q101.14-28.55 100.67-27.95 100.19-27.35 99.59-27.35L99.59-27.35Q99.34-27.35 99.04-27.45 98.74-27.55 98.44-27.65L98.44-27.65Q97.89-27.9 97.07-28.08 96.24-28.25 95.29-28.25L95.29-28.25Q93.34-28.25 92.22-27.2 91.09-26.15 90.52-24.33 89.94-22.5 89.59-20.1L89.59-20.1Q90.64-20.2 91.84-20.3 93.04-20.4 93.79-20.4L93.79-20.4Q94.99-20.4 95.67-20.03 96.34-19.65 96.34-18.6L96.34-18.6Q96.34-17.95 96.12-17.07 95.89-16.2 95.44-15.53 94.99-14.85 94.39-14.85L94.39-14.85Q94.14-14.85 93.54-15L93.54-15Q92.89-15.1 91.84-15.25 90.79-15.4 89.19-15.45L89.19-15.45Q88.99-13.3 88.87-10.68 88.74-8.05 88.74-5.15L88.74-5.15Q88.74-2 88.94 0.3 89.14 2.6 89.34 4.05L89.34 4.05Q89.44 4.7 89.49 5.2 89.54 5.7 89.54 6L89.54 6Q89.54 7.45 88.84 8.22 88.14 9 87.19 9.3 86.24 9.6 85.44 9.6ZM105.69 0.65L105.69 0.65Q102.24 0.65 100.16-1.23 98.09-3.1 98.09-6.75L98.09-6.75Q98.09-8.45 98.56-10.05 99.04-11.65 99.84-13.05L99.84-13.05Q99.04-12.55 98.64-12.55L98.64-12.55Q98.04-12.55 97.81-13.23 97.59-13.9 97.59-14.55L97.59-14.55Q97.59-15.7 98.06-16.38 98.54-17.05 98.99-17.4L98.99-17.4Q100.04-18.3 102.29-19.38 104.54-20.45 107.69-20.45L107.69-20.45Q111.99-20.45 114.36-18.05 116.74-15.65 116.74-11.35L116.74-11.35Q116.74-8 115.34-5.28 113.94-2.55 111.46-0.95 108.99 0.65 105.69 0.65ZM107.24-4.45L107.24-4.45Q109.74-4.45 111.46-6.03 113.19-7.6 113.19-10.2L113.19-10.2Q113.19-12.9 111.44-14.05 109.69-15.2 107.39-15.2L107.39-15.2Q106.34-15.2 105.49-15 104.64-14.8 103.89-14.5L103.89-14.5Q103.19-13.5 102.64-12.25 102.09-11 102.09-9.5L102.09-9.5Q102.09-7 103.59-5.73 105.09-4.45 107.24-4.45ZM124.29 0.5L124.29 0.5Q122.84 0.5 122.14-0.3 121.44-1.1 121.44-3.1L121.44-3.1Q121.44-4.05 121.59-5.55 121.74-7.05 121.94-8.8L121.94-8.8Q122.24-10.95 122.46-13.3 122.69-15.65 122.69-17.8L122.69-17.8Q122.69-20.85 122.41-24.13 122.14-27.4 120.89-29.85L120.89-29.85Q120.44-30.85 120.44-31.3L120.44-31.3Q120.44-31.95 121.01-32.55 121.59-33.15 122.44-33.58 123.29-34 124.09-34L124.09-34Q125.39-34 126.04-32.83 126.69-31.65 126.89-29.63 127.09-27.6 127.09-25L127.09-25Q127.09-21.05 126.76-18.15 126.44-15.25 126.14-13.05L126.14-13.05Q125.94-11.6 125.76-10.3 125.59-9 125.59-7.95L125.59-7.95Q125.59-6.2 126.16-5.43 126.74-4.65 128.04-3.9L128.04-3.9Q128.39-3.7 128.56-3.53 128.74-3.35 128.74-3L128.74-3Q128.74-2.6 128.34-1.75 127.94-0.9 126.96-0.2 125.99 0.5 124.29 0.5ZM136.18-24.85L136.18-24.85Q134.78-24.9 133.93-25.7 133.08-26.5 133.08-27.95L133.08-27.95Q133.13-29.5 134.13-30.48 135.13-31.45 136.68-31.4L136.68-31.4Q138.13-31.35 138.96-30.55 139.78-29.75 139.73-28.3L139.73-28.3Q139.68-26.8 138.73-25.83 137.78-24.85 136.18-24.85ZM136.23 0.5L136.23 0.5Q134.73 0.5 133.88-0.33 133.03-1.15 133.03-3.15L133.03-3.15Q133.03-4.3 133.26-5.4 133.48-6.5 133.78-7.55L133.78-7.55Q134.13-8.65 134.36-9.8 134.58-10.95 134.58-12.25L134.58-12.25Q134.58-13.15 134.33-13.98 134.08-14.8 133.23-15.2L133.23-15.2Q132.58-15.55 132.11-15.93 131.63-16.3 131.63-16.9L131.63-16.9Q131.63-17.6 132.28-18.4 132.93-19.2 134.01-19.78 135.08-20.35 136.23-20.35L136.23-20.35Q137.48-20.35 138.06-19.7 138.63-19.05 138.83-18.05 139.03-17.05 139.03-16L139.03-16Q139.03-14.4 138.78-12.88 138.53-11.35 138.28-10.05L138.28-10.05Q138.08-9.1 137.98-8.3 137.88-7.5 137.88-6.8L137.88-6.8Q137.88-5.55 138.48-4.93 139.08-4.3 140.18-3.75L140.18-3.75Q140.63-3.5 140.63-3L140.63-3Q140.63-2.6 140.23-1.75 139.83-0.9 138.86-0.2 137.88 0.5 136.23 0.5ZM152.28 0.65L152.28 0.65Q148.83 0.65 146.76-1.23 144.68-3.1 144.68-6.75L144.68-6.75Q144.68-8.45 145.16-10.05 145.63-11.65 146.43-13.05L146.43-13.05Q145.63-12.55 145.23-12.55L145.23-12.55Q144.63-12.55 144.41-13.23 144.18-13.9 144.18-14.55L144.18-14.55Q144.18-15.7 144.66-16.38 145.13-17.05 145.58-17.4L145.58-17.4Q146.63-18.3 148.88-19.38 151.13-20.45 154.28-20.45L154.28-20.45Q158.58-20.45 160.96-18.05 163.33-15.65 163.33-11.35L163.33-11.35Q163.33-8 161.93-5.28 160.53-2.55 158.06-0.95 155.58 0.65 152.28 0.65ZM153.83-4.45L153.83-4.45Q156.33-4.45 158.06-6.03 159.78-7.6 159.78-10.2L159.78-10.2Q159.78-12.9 158.03-14.05 156.28-15.2 153.98-15.2L153.98-15.2Q152.93-15.2 152.08-15 151.23-14.8 150.48-14.5L150.48-14.5Q149.78-13.5 149.23-12.25 148.68-11 148.68-9.5L148.68-9.5Q148.68-7 150.18-5.73 151.68-4.45 153.83-4.45Z" opacity="1" transform="matrix(1,0,0,1,0,0)" fill="#6f605b" class="wordmark-text-0" data-fill-palette-color="primary" id="text-0"></path></svg></g></svg></g><g transform="matrix(1,0,0,1,0,81.71909532016436)"><svg viewBox="0 0 244.43135999999998 22.48276220823593" height="22.48276220823593" width="244.43135999999998"><g transform="matrix(1,0,0,1,0,0)"><svg width="244.43135999999998" viewBox="0.3 -38.65 556.0400000000001 51.15" height="22.48276220823593" data-palette-color="#f36527"><path d="M13.05-34.05L21.2-10.1 25.35-24.5 22.35-34.05 19.5-34.05 19.5-35 35-35 35-34.05 32.05-34.05 39.5-10.4 45.5-34.05 40.45-34.05 40.45-35 50.45-35 50.45-34.05 47.15-34.05 37.95 0.5 33.5 0.5 26.1-22.1 19.6 0.5 15.25 0.5 2.65-34.05 0.3-34.05 0.3-35 16.55-35 16.55-34.05 13.05-34.05ZM60.4 0.5Q53.95 0.5 50.72-2.83 47.5-6.15 47.5-12.08 47.5-18 51.12-21.15 54.75-24.3 60.35-24.3L60.35-24.3Q71.7-24.3 71.25-12.9L71.25-12.9 57.15-12.9 57.15-10.95Q57.15-6.05 58.4-3.55 59.65-1.05 62.75-1.05L62.75-1.05Q68.55-1.05 70.35-7.25L70.35-7.25 71.25-7.1Q70.3-3.5 67.82-1.5 65.35 0.5 60.4 0.5L60.4 0.5ZM57.2-16.35L57.2-13.9 62.35-13.9 62.35-16.35Q62.35-20.4 61.87-21.88 61.4-23.35 59.97-23.35 58.55-23.35 57.87-21.78 57.2-20.2 57.2-16.35L57.2-16.35ZM72.84-36.6L72.84-37.5 85.09-37.5 85.09-0.9 87.9-0.9 87.9 0 73.05 0 73.05-0.9 75.8-0.9 75.8-36.6 72.84-36.6ZM102.84-23.4L102.84-23.4Q100.64-23.4 99.69-21 98.74-18.6 98.74-13.05L98.74-13.05 98.74-10.45Q98.74-5.5 99.84-3.35 100.94-1.2 103.89-1.2 106.84-1.2 108.59-3.2 110.34-5.2 110.84-7.75L110.84-7.75 111.74-7.65Q110.79-3.35 108.24-1.45L108.24-1.45Q105.64 0.5 101.09 0.5L101.09 0.5Q95.29 0.5 92.19-2.63 89.09-5.75 89.09-11.78 89.09-17.8 92.62-21.05 96.14-24.3 102.44-24.3L102.44-24.3Q106.89-24.3 109.24-22.58 111.59-20.85 111.59-18.25 111.59-15.65 110.47-14.45 109.34-13.25 107.37-13.25 105.39-13.25 104.19-14.3 102.99-15.35 102.99-17.4L102.99-17.4Q102.99-18.3 103.24-19.2L103.24-19.2 104.89-19.2Q105.24-20.2 105.24-21L105.24-21Q105.24-23.4 102.84-23.4ZM129.14-9.85L129.14-9.85 129.14-14.1Q129.14-18.95 128.62-21.18 128.09-23.4 126.19-23.4L126.19-23.4Q125.09-23.4 124.42-22.78 123.74-22.15 123.44-20.7L123.44-20.7Q122.99-18.45 122.99-13.85L122.99-13.85 122.99-9.95Q122.99-4.5 123.32-3.4 123.64-2.3 123.99-1.6L123.99-1.6Q124.54-0.4 126.14-0.4L126.14-0.4Q128.09-0.4 128.69-2.65L128.69-2.65Q129.14-4.25 129.14-9.85ZM126.04 0.5Q119.79 0.5 116.59-2.7 113.39-5.9 113.39-11.88 113.39-17.85 116.82-21.08 120.24-24.3 126.44-24.3 132.64-24.3 135.69-21.33 138.74-18.35 138.74-12.25L138.74-12.25Q138.74 0.5 126.04 0.5L126.04 0.5ZM140.14-22.9L140.14-23.8 152.19-23.8 152.19-19.2Q153.84-24.3 159.46-24.3 165.09-24.3 166.29-18.9L166.29-18.9Q168.04-24.3 173.64-24.3L173.64-24.3Q180.99-24.3 180.99-15.95L180.99-15.95 180.99-0.9 183.79-0.9 183.79 0 169.94 0 169.94-0.9 171.69-0.9 171.69-17.15Q171.69-20.95 171.04-21.6L171.04-21.6Q170.74-21.9 170.24-21.9L170.24-21.9Q168.79-21.9 167.69-19.95 166.59-18 166.59-15L166.59-15 166.59-0.9 168.39-0.9 168.39 0 155.54 0 155.54-0.9 157.29-0.9 157.29-17.15Q157.29-20.95 156.64-21.6L156.64-21.6Q156.34-21.9 155.84-21.9L155.84-21.9Q154.44-21.9 153.31-19.78 152.19-17.65 152.19-14.7L152.19-14.7 152.19-0.9 153.99-0.9 153.99 0 140.14 0 140.14-0.9 142.89-0.9 142.89-22.9 140.14-22.9ZM197.69 0.5Q191.24 0.5 188.01-2.83 184.79-6.15 184.79-12.08 184.79-18 188.41-21.15 192.04-24.3 197.64-24.3L197.64-24.3Q208.99-24.3 208.54-12.9L208.54-12.9 194.44-12.9 194.44-10.95Q194.44-6.05 195.69-3.55 196.94-1.05 200.04-1.05L200.04-1.05Q205.84-1.05 207.64-7.25L207.64-7.25 208.54-7.1Q207.59-3.5 205.11-1.5 202.64 0.5 197.69 0.5L197.69 0.5ZM194.49-16.35L194.49-13.9 199.64-13.9 199.64-16.35Q199.64-20.4 199.16-21.88 198.69-23.35 197.26-23.35 195.84-23.35 195.16-21.78 194.49-20.2 194.49-16.35L194.49-16.35ZM221.83-7.15L221.83-7.15 221.83-22.9 219.08-22.9 219.08-23.8 221.83-23.8 221.83-30.25 231.13-32.55 231.13-23.8 237.63-23.8 237.63-22.9 231.13-22.9 231.13-6.05Q231.13-3.7 231.61-2.6 232.08-1.5 233.58-1.5 235.08-1.5 236.21-3 237.33-4.5 237.68-7.1L237.68-7.1 238.53-7Q238.13-3.55 236.33-1.53 234.53 0.5 230.38 0.5 226.23 0.5 224.03-1.15 221.83-2.8 221.83-7.15ZM255.18-9.85L255.18-9.85 255.18-14.1Q255.18-18.95 254.65-21.18 254.13-23.4 252.23-23.4L252.23-23.4Q251.13-23.4 250.45-22.78 249.78-22.15 249.48-20.7L249.48-20.7Q249.03-18.45 249.03-13.85L249.03-13.85 249.03-9.95Q249.03-4.5 249.35-3.4 249.68-2.3 250.03-1.6L250.03-1.6Q250.58-0.4 252.18-0.4L252.18-0.4Q254.13-0.4 254.73-2.65L254.73-2.65Q255.18-4.25 255.18-9.85ZM252.08 0.5Q245.83 0.5 242.63-2.7 239.43-5.9 239.43-11.88 239.43-17.85 242.85-21.08 246.28-24.3 252.48-24.3 258.68-24.3 261.73-21.33 264.78-18.35 264.78-12.25L264.78-12.25Q264.78 0.5 252.08 0.5L252.08 0.5ZM275.17-22.9L275.17-23.8 287.22-23.8 287.22-19.2Q288.87-24.3 294.5-24.3 300.12-24.3 301.32-18.9L301.32-18.9Q303.07-24.3 308.67-24.3L308.67-24.3Q316.02-24.3 316.02-15.95L316.02-15.95 316.02-0.9 318.82-0.9 318.82 0 304.97 0 304.97-0.9 306.72-0.9 306.72-17.15Q306.72-20.95 306.07-21.6L306.07-21.6Q305.77-21.9 305.27-21.9L305.27-21.9Q303.82-21.9 302.72-19.95 301.62-18 301.62-15L301.62-15 301.62-0.9 303.42-0.9 303.42 0 290.57 0 290.57-0.9 292.32-0.9 292.32-17.15Q292.32-20.95 291.67-21.6L291.67-21.6Q291.37-21.9 290.87-21.9L290.87-21.9Q289.47-21.9 288.35-19.78 287.22-17.65 287.22-14.7L287.22-14.7 287.22-0.9 289.02-0.9 289.02 0 275.17 0 275.17-0.9 277.92-0.9 277.92-22.9 275.17-22.9ZM318.87-22.9L316.82-22.9 316.82-23.8 331.32-23.8 331.32-22.9 328.62-22.9 334.07-6.3 339.87-22.9 336.52-22.9 336.52-23.8 343.57-23.8 343.57-22.9 341.07-22.9 331.72 4.05Q330.07 8.75 328.02 10.63 325.97 12.5 323.02 12.5 320.07 12.5 318.37 11.15 316.67 9.8 316.67 7.7 316.67 5.6 317.77 4.5 318.87 3.4 320.67 3.4L320.67 3.4Q324.82 3.4 324.82 6.85L324.82 6.85Q324.82 7.6 324.52 8.65L324.52 8.65 322.77 8.65Q322.37 9.8 322.67 10.55 322.97 11.3 324.02 11.3L324.02 11.3Q326.07 11.3 327.67 9.28 329.27 7.25 330.72 3.1L330.72 3.1 331.82 0 327.42 0 318.87-22.9ZM370.92-13.45Q370.92-18.6 370.42-20.38 369.92-22.15 368.47-22.15 367.02-22.15 365.87-20.28 364.72-18.4 364.72-15.25L364.72-15.25 364.72-6.1Q364.72-3.95 365.56-2.45 366.42-0.95 368.06-0.95 369.72-0.95 370.31-3.15 370.92-5.35 370.92-10.85L370.92-10.85 370.92-13.45ZM352.77-23.8L364.62-23.8 364.62-19.85Q366.56-24.3 371.52-24.3L371.52-24.3Q375.81-24.3 378.19-21.2 380.56-18.1 380.56-11.8 380.56-5.5 377.99-2.5 375.42 0.5 370.27 0.5L370.27 0.5Q367.87 0.5 366.67-0.1 365.47-0.7 364.72-1.95L364.72-1.95 364.72 11 371.17 11 371.17 11.9 352.67 11.9 352.67 11 355.42 11 355.42-22.9 352.77-22.9 352.77-23.8ZM398.21-9.85L398.21-9.85 398.21-14.1Q398.21-18.95 397.69-21.18 397.16-23.4 395.26-23.4L395.26-23.4Q394.16-23.4 393.49-22.78 392.81-22.15 392.51-20.7L392.51-20.7Q392.06-18.45 392.06-13.85L392.06-13.85 392.06-9.95Q392.06-4.5 392.39-3.4 392.71-2.3 393.06-1.6L393.06-1.6Q393.61-0.4 395.21-0.4L395.21-0.4Q397.16-0.4 397.76-2.65L397.76-2.65Q398.21-4.25 398.21-9.85ZM395.11 0.5Q388.86 0.5 385.66-2.7 382.46-5.9 382.46-11.88 382.46-17.85 385.89-21.08 389.31-24.3 395.51-24.3 401.71-24.3 404.76-21.33 407.81-18.35 407.81-12.25L407.81-12.25Q407.81 0.5 395.11 0.5L395.11 0.5ZM425.91-22.4L425.91-22.4Q424.06-22.4 422.66-20 421.26-17.6 421.26-14.3L421.26-14.3 421.26-0.9 424.81-0.9 424.81 0 409.21 0 409.21-0.9 411.96-0.9 411.96-22.9 409.21-22.9 409.21-23.8 421.26-23.8 421.26-19Q421.91-21.55 423.76-22.93 425.61-24.3 427.96-24.3 430.31-24.3 431.78-22.98 433.26-21.65 433.26-19.23 433.26-16.8 432.16-15.5 431.06-14.2 428.78-14.2 426.51-14.2 425.44-15.7 424.36-17.2 425.16-19.85L425.16-19.85 426.96-19.85Q428.21-22.4 425.91-22.4ZM436.46-7.15L436.46-7.15 436.46-22.9 433.71-22.9 433.71-23.8 436.46-23.8 436.46-30.25 445.76-32.55 445.76-23.8 452.26-23.8 452.26-22.9 445.76-22.9 445.76-6.05Q445.76-3.7 446.23-2.6 446.71-1.5 448.21-1.5 449.71-1.5 450.83-3 451.96-4.5 452.31-7.1L452.31-7.1 453.16-7Q452.76-3.55 450.96-1.53 449.16 0.5 445.01 0.5 440.86 0.5 438.66-1.15 436.46-2.8 436.46-7.15ZM468.8-37.8L468.8-37.8Q466.9-37.8 466.3-36.38 465.7-34.95 465.7-31.8L465.7-31.8 465.7-23.8 472.3-23.8 472.3-22.9 465.7-22.9 465.7-0.9 471.8-0.9 471.8 0 453.65 0 453.65-0.9 456.4-0.9 456.4-22.9 453.5-22.9 453.5-23.8 456.4-23.8 456.4-24Q456.4-31.2 459.15-34.93 461.9-38.65 468.35-38.65L468.35-38.65Q472.6-38.65 474.45-36.98 476.3-35.3 476.3-33.1 476.3-30.9 475.15-29.8 474-28.7 472.1-28.7 470.2-28.7 469.18-29.68 468.15-30.65 468.15-31.93 468.15-33.2 468.45-34.4L468.45-34.4 470.35-34.4Q471.35-37.8 468.8-37.8ZM487.95-9.85L487.95-9.85 487.95-14.1Q487.95-18.95 487.43-21.18 486.9-23.4 485-23.4L485-23.4Q483.9-23.4 483.23-22.78 482.55-22.15 482.25-20.7L482.25-20.7Q481.8-18.45 481.8-13.85L481.8-13.85 481.8-9.95Q481.8-4.5 482.13-3.4 482.45-2.3 482.8-1.6L482.8-1.6Q483.35-0.4 484.95-0.4L484.95-0.4Q486.9-0.4 487.5-2.65L487.5-2.65Q487.95-4.25 487.95-9.85ZM484.85 0.5Q478.6 0.5 475.4-2.7 472.2-5.9 472.2-11.88 472.2-17.85 475.63-21.08 479.05-24.3 485.25-24.3 491.45-24.3 494.5-21.33 497.55-18.35 497.55-12.25L497.55-12.25Q497.55 0.5 484.85 0.5L484.85 0.5ZM498.75-36.6L498.75-37.5 511-37.5 511-0.9 513.8-0.9 513.8 0 498.95 0 498.95-0.9 501.7-0.9 501.7-36.6 498.75-36.6ZM522.1-27.25Q519.45-27.25 518.32-28.6 517.2-29.95 517.2-31.95 517.2-33.95 518.42-35.25 519.65-36.55 522.15-36.55 524.65-36.55 525.95-35.38 527.25-34.2 527.25-32.02 527.25-29.85 526-28.55 524.75-27.25 522.1-27.25ZM514.55-22.9L514.55-23.8 526.8-23.8 526.8-0.9 529.6-0.9 529.6 0 514.75 0 514.75-0.9 517.5-0.9 517.5-22.9 514.55-22.9ZM546.74-9.85L546.74-9.85 546.74-14.1Q546.74-18.95 546.22-21.18 545.69-23.4 543.79-23.4L543.79-23.4Q542.69-23.4 542.02-22.78 541.34-22.15 541.04-20.7L541.04-20.7Q540.59-18.45 540.59-13.85L540.59-13.85 540.59-9.95Q540.59-4.5 540.92-3.4 541.24-2.3 541.59-1.6L541.59-1.6Q542.14-0.4 543.74-0.4L543.74-0.4Q545.69-0.4 546.29-2.65L546.29-2.65Q546.74-4.25 546.74-9.85ZM543.64 0.5Q537.39 0.5 534.19-2.7 530.99-5.9 530.99-11.88 530.99-17.85 534.42-21.08 537.84-24.3 544.04-24.3 550.24-24.3 553.29-21.33 556.34-18.35 556.34-12.25L556.34-12.25Q556.34 0.5 543.64 0.5L543.64 0.5Z" opacity="1" transform="matrix(1,0,0,1,0,0)" fill="#f36527" class="slogan-text-1" data-fill-palette-color="secondary" id="text-1"></path></svg></g></svg></g></svg></g></svg></g></svg></g></svg></g></svg></g><path d="M161.834 65.499L161.834 7.879 393.277 7.879 393.277 239.321 161.834 239.321 161.834 181.701 167.796 181.701 167.796 233.359 387.315 233.359 387.315 13.841 167.796 13.841 167.796 65.499Z" fill="#6f605b" stroke="transparent" data-fill-palette-color="tertiary"></path></svg></g><defs></defs></svg><rect width="395.52" height="247.2" fill="none" stroke="none" visibility="hidden"></rect></g></svg></g></svg>